<mxfile host="65bd71144e">
    <diagram id="9DKgVahRmi7qY-blzzaC" name="Page-1">
        <mxGraphModel dx="2332" dy="1919" grid="1" gridSize="10" guides="1" tooltips="1" connect="1" arrows="1" fold="1" page="1" pageScale="1" pageWidth="850" pageHeight="1100" math="0" shadow="0">
            <root>
                <mxCell id="0"/>
                <mxCell id="1" parent="0"/>
                <mxCell id="130" value="IRenderable" style="swimlane;fontStyle=1;align=center;verticalAlign=top;childLayout=stackLayout;horizontal=1;startSize=26;horizontalStack=0;resizeParent=1;resizeParentMax=0;resizeLast=0;collapsible=1;marginBottom=0;fontFamily=Lucida Console;" vertex="1" parent="1">
                    <mxGeometry x="270" y="-216" width="270" height="60" as="geometry"/>
                </mxCell>
                <mxCell id="131" value="" style="line;strokeWidth=1;fillColor=none;align=left;verticalAlign=middle;spacingTop=-1;spacingLeft=3;spacingRight=3;rotatable=0;labelPosition=right;points=[];portConstraint=eastwest;strokeColor=inherit;fontFamily=Lucida Console;" vertex="1" parent="130">
                    <mxGeometry y="26" width="270" height="8" as="geometry"/>
                </mxCell>
                <mxCell id="132" value="draw(top_mat4, context)" style="text;strokeColor=none;fillColor=none;align=left;verticalAlign=top;spacingLeft=4;spacingRight=4;overflow=hidden;rotatable=0;points=[[0,0.5],[1,0.5]];portConstraint=eastwest;fontFamily=Lucida Console;" vertex="1" parent="130">
                    <mxGeometry y="34" width="270" height="26" as="geometry"/>
                </mxCell>
                <mxCell id="150" value="CPUScene" style="swimlane;fontStyle=1;align=center;verticalAlign=top;childLayout=stackLayout;horizontal=1;startSize=26;horizontalStack=0;resizeParent=1;resizeParentMax=0;resizeLast=0;collapsible=1;marginBottom=0;fontFamily=Lucida Console;" vertex="1" parent="1">
                    <mxGeometry x="-470" y="-50" width="270" height="86" as="geometry"/>
                </mxCell>
                <mxCell id="152" value="(Should be a gemini with GPUScene)" style="text;strokeColor=none;fillColor=none;align=left;verticalAlign=top;spacingLeft=4;spacingRight=4;overflow=hidden;rotatable=0;points=[[0,0.5],[1,0.5]];portConstraint=eastwest;fontFamily=Lucida Console;" vertex="1" parent="150">
                    <mxGeometry y="26" width="270" height="26" as="geometry"/>
                </mxCell>
                <mxCell id="151" value="" style="line;strokeWidth=1;fillColor=none;align=left;verticalAlign=middle;spacingTop=-1;spacingLeft=3;spacingRight=3;rotatable=0;labelPosition=right;points=[];portConstraint=eastwest;strokeColor=inherit;fontFamily=Lucida Console;" vertex="1" parent="150">
                    <mxGeometry y="52" width="270" height="8" as="geometry"/>
                </mxCell>
                <mxCell id="158" value=" " style="text;strokeColor=none;fillColor=none;align=left;verticalAlign=top;spacingLeft=4;spacingRight=4;overflow=hidden;rotatable=0;points=[[0,0.5],[1,0.5]];portConstraint=eastwest;fontFamily=Lucida Console;" vertex="1" parent="150">
                    <mxGeometry y="60" width="270" height="26" as="geometry"/>
                </mxCell>
                <mxCell id="153" value="GPUScene" style="swimlane;fontStyle=1;align=center;verticalAlign=top;childLayout=stackLayout;horizontal=1;startSize=26;horizontalStack=0;resizeParent=1;resizeParentMax=0;resizeLast=0;collapsible=1;marginBottom=0;fontFamily=Lucida Console;" vertex="1" parent="1">
                    <mxGeometry x="-80" y="-76" width="270" height="138" as="geometry"/>
                </mxCell>
                <mxCell id="227" value="top_nodes: vector&lt;s_ptr&lt;Node&gt;&gt;" style="text;strokeColor=none;fillColor=none;align=left;verticalAlign=top;spacingLeft=4;spacingRight=4;overflow=hidden;rotatable=0;points=[[0,0.5],[1,0.5]];portConstraint=eastwest;fontFamily=Lucida Console;" vertex="1" parent="153">
                    <mxGeometry y="26" width="270" height="26" as="geometry"/>
                </mxCell>
                <mxCell id="162" value="resources: GPUResource" style="text;strokeColor=none;fillColor=none;align=left;verticalAlign=top;spacingLeft=4;spacingRight=4;overflow=hidden;rotatable=0;points=[[0,0.5],[1,0.5]];portConstraint=eastwest;fontFamily=Lucida Console;" vertex="1" parent="153">
                    <mxGeometry y="52" width="270" height="26" as="geometry"/>
                </mxCell>
                <mxCell id="232" value="device: VkDevice" style="text;strokeColor=none;fillColor=none;align=left;verticalAlign=top;spacingLeft=4;spacingRight=4;overflow=hidden;rotatable=0;points=[[0,0.5],[1,0.5]];portConstraint=eastwest;fontFamily=Lucida Console;" vertex="1" parent="153">
                    <mxGeometry y="78" width="270" height="26" as="geometry"/>
                </mxCell>
                <mxCell id="154" value="" style="line;strokeWidth=1;fillColor=none;align=left;verticalAlign=middle;spacingTop=-1;spacingLeft=3;spacingRight=3;rotatable=0;labelPosition=right;points=[];portConstraint=eastwest;strokeColor=inherit;fontFamily=Lucida Console;" vertex="1" parent="153">
                    <mxGeometry y="104" width="270" height="8" as="geometry"/>
                </mxCell>
                <mxCell id="155" value="draw(top_mat4, context)" style="text;strokeColor=none;fillColor=none;align=left;verticalAlign=top;spacingLeft=4;spacingRight=4;overflow=hidden;rotatable=0;points=[[0,0.5],[1,0.5]];portConstraint=eastwest;fontFamily=Lucida Console;" vertex="1" parent="153">
                    <mxGeometry y="112" width="270" height="26" as="geometry"/>
                </mxCell>
                <mxCell id="159" value="Holds everything at CPU side,&amp;nbsp;&lt;br&gt;for future editing, etc." style="text;html=1;align=center;verticalAlign=middle;resizable=0;points=[];autosize=1;strokeColor=none;fillColor=none;" vertex="1" parent="1">
                    <mxGeometry x="-435" y="-90" width="190" height="40" as="geometry"/>
                </mxCell>
                <mxCell id="160" style="edgeStyle=none;html=1;shape=flexArrow;" edge="1" parent="1" source="150" target="153">
                    <mxGeometry relative="1" as="geometry">
                        <mxPoint x="-290" y="57" as="targetPoint"/>
                    </mxGeometry>
                </mxCell>
                <mxCell id="161" value="freeze" style="edgeLabel;html=1;align=center;verticalAlign=middle;resizable=0;points=[];" vertex="1" connectable="0" parent="160">
                    <mxGeometry x="-0.2636" y="-3" relative="1" as="geometry">
                        <mxPoint x="17" y="-15" as="offset"/>
                    </mxGeometry>
                </mxCell>
                <mxCell id="163" value="GPUNode" style="swimlane;fontStyle=1;align=center;verticalAlign=top;childLayout=stackLayout;horizontal=1;startSize=26;horizontalStack=0;resizeParent=1;resizeParentMax=0;resizeLast=0;collapsible=1;marginBottom=0;fontFamily=Lucida Console;" vertex="1" parent="1">
                    <mxGeometry x="620" y="-180" width="310" height="220" as="geometry"/>
                </mxCell>
                <mxCell id="164" value="parent: weak_ptr&lt;GPUNode&gt;" style="text;strokeColor=none;fillColor=none;align=left;verticalAlign=top;spacingLeft=4;spacingRight=4;overflow=hidden;rotatable=0;points=[[0,0.5],[1,0.5]];portConstraint=eastwest;fontFamily=Lucida Console;" vertex="1" parent="163">
                    <mxGeometry y="26" width="310" height="26" as="geometry"/>
                </mxCell>
                <mxCell id="165" value="children: vector&lt;shared_ptr&lt;GPUNode&gt;&gt;" style="text;strokeColor=none;fillColor=none;align=left;verticalAlign=top;spacingLeft=4;spacingRight=4;overflow=hidden;rotatable=0;points=[[0,0.5],[1,0.5]];portConstraint=eastwest;fontFamily=Lucida Console;" vertex="1" parent="163">
                    <mxGeometry y="52" width="310" height="26" as="geometry"/>
                </mxCell>
                <mxCell id="166" value="transform_local: mat4&#10;  Relative transform." style="text;strokeColor=none;fillColor=none;align=left;verticalAlign=top;spacingLeft=4;spacingRight=4;overflow=hidden;rotatable=0;points=[[0,0.5],[1,0.5]];portConstraint=eastwest;fontFamily=Lucida Console;" vertex="1" parent="163">
                    <mxGeometry y="78" width="310" height="32" as="geometry"/>
                </mxCell>
                <mxCell id="167" value="transform_world: mat4&#10;  Absolute transform.&#10;  World position = world * local * v_pos." style="text;strokeColor=none;fillColor=none;align=left;verticalAlign=top;spacingLeft=4;spacingRight=4;overflow=hidden;rotatable=0;points=[[0,0.5],[1,0.5]];portConstraint=eastwest;fontFamily=Lucida Console;" vertex="1" parent="163">
                    <mxGeometry y="110" width="310" height="50" as="geometry"/>
                </mxCell>
                <mxCell id="168" value="" style="line;strokeWidth=1;fillColor=none;align=left;verticalAlign=middle;spacingTop=-1;spacingLeft=3;spacingRight=3;rotatable=0;labelPosition=right;points=[];portConstraint=eastwest;strokeColor=inherit;fontFamily=Lucida Console;" vertex="1" parent="163">
                    <mxGeometry y="160" width="310" height="8" as="geometry"/>
                </mxCell>
                <mxCell id="169" value="draw(): virtual void override" style="text;strokeColor=none;fillColor=none;align=left;verticalAlign=top;spacingLeft=4;spacingRight=4;overflow=hidden;rotatable=0;points=[[0,0.5],[1,0.5]];portConstraint=eastwest;fontFamily=Lucida Console;" vertex="1" parent="163">
                    <mxGeometry y="168" width="310" height="26" as="geometry"/>
                </mxCell>
                <mxCell id="170" value="updateTransdform(): void" style="text;strokeColor=none;fillColor=none;align=left;verticalAlign=top;spacingLeft=4;spacingRight=4;overflow=hidden;rotatable=0;points=[[0,0.5],[1,0.5]];portConstraint=eastwest;fontFamily=Lucida Console;" vertex="1" parent="163">
                    <mxGeometry y="194" width="310" height="26" as="geometry"/>
                </mxCell>
                <mxCell id="171" value="" style="endArrow=block;dashed=1;endFill=0;html=1;" edge="1" parent="1" source="163" target="130">
                    <mxGeometry width="160" relative="1" as="geometry">
                        <mxPoint x="540" y="-89.99666666666674" as="sourcePoint"/>
                        <mxPoint x="-780" y="-82.83" as="targetPoint"/>
                    </mxGeometry>
                </mxCell>
                <mxCell id="177" value="GPUMeshNode" style="swimlane;fontStyle=1;align=center;verticalAlign=top;childLayout=stackLayout;horizontal=1;startSize=26;horizontalStack=0;resizeParent=1;resizeParentMax=0;resizeLast=0;collapsible=1;marginBottom=0;fontFamily=Lucida Console;" vertex="1" parent="1">
                    <mxGeometry x="1010" y="-126" width="240" height="112" as="geometry"/>
                </mxCell>
                <mxCell id="178" value="mesh: shared_ptr&lt;GPUMeshAsset&gt;" style="text;strokeColor=none;fillColor=none;align=left;verticalAlign=top;spacingLeft=4;spacingRight=4;overflow=hidden;rotatable=0;points=[[0,0.5],[1,0.5]];portConstraint=eastwest;fontFamily=Lucida Console;" vertex="1" parent="177">
                    <mxGeometry y="26" width="240" height="26" as="geometry"/>
                </mxCell>
                <mxCell id="179" value="" style="line;strokeWidth=1;fillColor=none;align=left;verticalAlign=middle;spacingTop=-1;spacingLeft=3;spacingRight=3;rotatable=0;labelPosition=right;points=[];portConstraint=eastwest;strokeColor=inherit;fontFamily=Lucida Console;" vertex="1" parent="177">
                    <mxGeometry y="52" width="240" height="8" as="geometry"/>
                </mxCell>
                <mxCell id="180" value="draw(): virtual void override" style="text;strokeColor=none;fillColor=none;align=left;verticalAlign=top;spacingLeft=4;spacingRight=4;overflow=hidden;rotatable=0;points=[[0,0.5],[1,0.5]];portConstraint=eastwest;fontFamily=Lucida Console;" vertex="1" parent="177">
                    <mxGeometry y="60" width="240" height="26" as="geometry"/>
                </mxCell>
                <mxCell id="181" value="updateTransdform(): void" style="text;strokeColor=none;fillColor=none;align=left;verticalAlign=top;spacingLeft=4;spacingRight=4;overflow=hidden;rotatable=0;points=[[0,0.5],[1,0.5]];portConstraint=eastwest;fontFamily=Lucida Console;" vertex="1" parent="177">
                    <mxGeometry y="86" width="240" height="26" as="geometry"/>
                </mxCell>
                <mxCell id="182" value="GPUMeshAsset" style="swimlane;fontStyle=1;align=center;verticalAlign=top;childLayout=stackLayout;horizontal=1;startSize=26;horizontalStack=0;resizeParent=1;resizeParentMax=0;resizeLast=0;collapsible=1;marginBottom=0;fontFamily=Lucida Console;" vertex="1" parent="1">
                    <mxGeometry x="1330" y="-14" width="260" height="112" as="geometry"/>
                </mxCell>
                <mxCell id="183" value="name: string" style="text;strokeColor=none;fillColor=none;align=left;verticalAlign=top;spacingLeft=4;spacingRight=4;overflow=hidden;rotatable=0;points=[[0,0.5],[1,0.5]];portConstraint=eastwest;fontFamily=Lucida Console;" vertex="1" parent="182">
                    <mxGeometry y="26" width="260" height="26" as="geometry"/>
                </mxCell>
                <mxCell id="184" value="surfaces: vector&lt;GeometrySurface&gt;" style="text;strokeColor=none;fillColor=none;align=left;verticalAlign=top;spacingLeft=4;spacingRight=4;overflow=hidden;rotatable=0;points=[[0,0.5],[1,0.5]];portConstraint=eastwest;fontFamily=Lucida Console;" vertex="1" parent="182">
                    <mxGeometry y="52" width="260" height="26" as="geometry"/>
                </mxCell>
                <mxCell id="185" value="mesh_buffers: GPUMeshBuffers" style="text;strokeColor=none;fillColor=none;align=left;verticalAlign=top;spacingLeft=4;spacingRight=4;overflow=hidden;rotatable=0;points=[[0,0.5],[1,0.5]];portConstraint=eastwest;fontFamily=Lucida Console;" vertex="1" parent="182">
                    <mxGeometry y="78" width="260" height="26" as="geometry"/>
                </mxCell>
                <mxCell id="186" value="" style="line;strokeWidth=1;fillColor=none;align=left;verticalAlign=middle;spacingTop=-1;spacingLeft=3;spacingRight=3;rotatable=0;labelPosition=right;points=[];portConstraint=eastwest;strokeColor=inherit;fontFamily=Lucida Console;" vertex="1" parent="182">
                    <mxGeometry y="104" width="260" height="8" as="geometry"/>
                </mxCell>
                <mxCell id="187" style="edgeStyle=none;html=1;fontFamily=Lucida Console;entryX=1;entryY=0.5;entryDx=0;entryDy=0;" edge="1" parent="1" source="182" target="178">
                    <mxGeometry relative="1" as="geometry"/>
                </mxCell>
                <mxCell id="190" value="Extends" style="endArrow=block;endSize=16;endFill=0;html=1;" edge="1" parent="1" source="177" target="163">
                    <mxGeometry width="160" relative="1" as="geometry">
                        <mxPoint x="-190" y="60" as="sourcePoint"/>
                        <mxPoint x="-30" y="60" as="targetPoint"/>
                    </mxGeometry>
                </mxCell>
                <mxCell id="198" style="edgeStyle=none;html=1;entryX=0;entryY=0.5;entryDx=0;entryDy=0;" edge="1" parent="1" source="191" target="184">
                    <mxGeometry relative="1" as="geometry"/>
                </mxCell>
                <mxCell id="191" value="GPUGeometrySurface" style="swimlane;fontStyle=1;align=center;verticalAlign=top;childLayout=stackLayout;horizontal=1;startSize=26;horizontalStack=0;resizeParent=1;resizeParentMax=0;resizeLast=0;collapsible=1;marginBottom=0;fontFamily=Lucida Console;" vertex="1" parent="1">
                    <mxGeometry x="1010" y="84" width="270" height="114" as="geometry"/>
                </mxCell>
                <mxCell id="192" value="index_offset, index_count" style="text;strokeColor=none;fillColor=none;align=left;verticalAlign=top;spacingLeft=4;spacingRight=4;overflow=hidden;rotatable=0;points=[[0,0.5],[1,0.5]];portConstraint=eastwest;fontFamily=Lucida Console;" vertex="1" parent="191">
                    <mxGeometry y="26" width="270" height="26" as="geometry"/>
                </mxCell>
                <mxCell id="194" value="bound: GeometryBound" style="text;strokeColor=none;fillColor=none;align=left;verticalAlign=top;spacingLeft=4;spacingRight=4;overflow=hidden;rotatable=0;points=[[0,0.5],[1,0.5]];portConstraint=eastwest;fontFamily=Lucida Console;" vertex="1" parent="191">
                    <mxGeometry y="52" width="270" height="28" as="geometry"/>
                </mxCell>
                <mxCell id="195" value="material: s_ptr&lt;GPUMaterialInstance&gt;" style="text;strokeColor=none;fillColor=none;align=left;verticalAlign=top;spacingLeft=4;spacingRight=4;overflow=hidden;rotatable=0;points=[[0,0.5],[1,0.5]];portConstraint=eastwest;fontFamily=Lucida Console;" vertex="1" parent="191">
                    <mxGeometry y="80" width="270" height="26" as="geometry"/>
                </mxCell>
                <mxCell id="196" value="" style="line;strokeWidth=1;fillColor=none;align=left;verticalAlign=middle;spacingTop=-1;spacingLeft=3;spacingRight=3;rotatable=0;labelPosition=right;points=[];portConstraint=eastwest;strokeColor=inherit;fontFamily=Lucida Console;" vertex="1" parent="191">
                    <mxGeometry y="106" width="270" height="8" as="geometry"/>
                </mxCell>
                <mxCell id="204" style="edgeStyle=none;html=1;entryX=1;entryY=0.5;entryDx=0;entryDy=0;" edge="1" parent="1" source="199" target="185">
                    <mxGeometry relative="1" as="geometry"/>
                </mxCell>
                <mxCell id="199" value="GPUMeshBuffers" style="swimlane;fontStyle=1;align=center;verticalAlign=top;childLayout=stackLayout;horizontal=1;startSize=26;horizontalStack=0;resizeParent=1;resizeParentMax=0;resizeLast=0;collapsible=1;marginBottom=0;fontFamily=Lucida Console;" vertex="1" parent="1">
                    <mxGeometry x="1630" y="110" width="300" height="112" as="geometry"/>
                </mxCell>
                <mxCell id="200" value="index_buffer: AllocatedBuffer" style="text;strokeColor=none;fillColor=none;align=left;verticalAlign=top;spacingLeft=4;spacingRight=4;overflow=hidden;rotatable=0;points=[[0,0.5],[1,0.5]];portConstraint=eastwest;fontFamily=Lucida Console;" vertex="1" parent="199">
                    <mxGeometry y="26" width="300" height="26" as="geometry"/>
                </mxCell>
                <mxCell id="201" value="vertex_buffer: AllocatedBuffer" style="text;strokeColor=none;fillColor=none;align=left;verticalAlign=top;spacingLeft=4;spacingRight=4;overflow=hidden;rotatable=0;points=[[0,0.5],[1,0.5]];portConstraint=eastwest;fontFamily=Lucida Console;" vertex="1" parent="199">
                    <mxGeometry y="52" width="300" height="26" as="geometry"/>
                </mxCell>
                <mxCell id="202" value="vertex_buffer_address: VkDeviceAddress" style="text;strokeColor=none;fillColor=none;align=left;verticalAlign=top;spacingLeft=4;spacingRight=4;overflow=hidden;rotatable=0;points=[[0,0.5],[1,0.5]];portConstraint=eastwest;fontFamily=Lucida Console;" vertex="1" parent="199">
                    <mxGeometry y="78" width="300" height="26" as="geometry"/>
                </mxCell>
                <mxCell id="203" value="" style="line;strokeWidth=1;fillColor=none;align=left;verticalAlign=middle;spacingTop=-1;spacingLeft=3;spacingRight=3;rotatable=0;labelPosition=right;points=[];portConstraint=eastwest;strokeColor=inherit;fontFamily=Lucida Console;" vertex="1" parent="199">
                    <mxGeometry y="104" width="300" height="8" as="geometry"/>
                </mxCell>
                <mxCell id="205" value="RenderObject" style="swimlane;fontStyle=1;align=center;verticalAlign=top;childLayout=stackLayout;horizontal=1;startSize=26;horizontalStack=0;resizeParent=1;resizeParentMax=0;resizeLast=0;collapsible=1;marginBottom=0;fontFamily=Lucida Console;" vertex="1" parent="1">
                    <mxGeometry x="-95" y="-400" width="300" height="154" as="geometry"/>
                </mxCell>
                <mxCell id="206" value="index_buffer, index_offset, index_count" style="text;strokeColor=#666666;fillColor=#f5f5f5;align=left;verticalAlign=top;spacingLeft=4;spacingRight=4;overflow=hidden;rotatable=0;points=[[0,0.5],[1,0.5]];portConstraint=eastwest;fontFamily=Lucida Console;fontColor=#333333;" vertex="1" parent="205">
                    <mxGeometry y="26" width="300" height="26" as="geometry"/>
                </mxCell>
                <mxCell id="207" value="material(type, pipeline, desc_set)" style="text;strokeColor=#666666;fillColor=#f5f5f5;align=left;verticalAlign=top;spacingLeft=4;spacingRight=4;overflow=hidden;rotatable=0;points=[[0,0.5],[1,0.5]];portConstraint=eastwest;fontFamily=Lucida Console;fontColor=#333333;" vertex="1" parent="205">
                    <mxGeometry y="52" width="300" height="26" as="geometry"/>
                </mxCell>
                <mxCell id="208" value="transform&#10;  Can be used for fast duplication." style="text;strokeColor=#6c8ebf;fillColor=#dae8fc;align=left;verticalAlign=top;spacingLeft=4;spacingRight=4;overflow=hidden;rotatable=0;points=[[0,0.5],[1,0.5]];portConstraint=eastwest;fontFamily=Lucida Console;" vertex="1" parent="205">
                    <mxGeometry y="78" width="300" height="42" as="geometry"/>
                </mxCell>
                <mxCell id="209" value="vertex_buffer_device_address" style="text;strokeColor=#6c8ebf;fillColor=#dae8fc;align=left;verticalAlign=top;spacingLeft=4;spacingRight=4;overflow=hidden;rotatable=0;points=[[0,0.5],[1,0.5]];portConstraint=eastwest;fontFamily=Lucida Console;" vertex="1" parent="205">
                    <mxGeometry y="120" width="300" height="26" as="geometry"/>
                </mxCell>
                <mxCell id="210" value="" style="line;strokeWidth=1;fillColor=none;align=left;verticalAlign=middle;spacingTop=-1;spacingLeft=3;spacingRight=3;rotatable=0;labelPosition=right;points=[];portConstraint=eastwest;strokeColor=inherit;fontFamily=Lucida Console;" vertex="1" parent="205">
                    <mxGeometry y="146" width="300" height="8" as="geometry"/>
                </mxCell>
                <mxCell id="211" value="to be bound to command buffer" style="text;html=1;align=center;verticalAlign=middle;resizable=0;points=[];autosize=1;strokeColor=#666666;fillColor=#f5f5f5;fontColor=#333333;" vertex="1" parent="1">
                    <mxGeometry x="220" y="-360" width="190" height="30" as="geometry"/>
                </mxCell>
                <mxCell id="212" value="to be pushed as constants" style="text;html=1;align=center;verticalAlign=middle;resizable=0;points=[];autosize=1;strokeColor=#6c8ebf;fillColor=#dae8fc;" vertex="1" parent="1">
                    <mxGeometry x="220" y="-315" width="160" height="30" as="geometry"/>
                </mxCell>
                <mxCell id="213" value="Render context is a vector of RenderObject.&amp;nbsp;&lt;br&gt;This is everything vkCmdxxx() needed to draw." style="text;html=1;align=center;verticalAlign=middle;resizable=0;points=[];autosize=1;strokeColor=none;fillColor=none;" vertex="1" parent="1">
                    <mxGeometry x="-80" y="-440" width="270" height="40" as="geometry"/>
                </mxCell>
                <mxCell id="214" style="edgeStyle=none;html=1;shape=flexArrow;" edge="1" parent="1" source="153" target="205">
                    <mxGeometry relative="1" as="geometry">
                        <mxPoint x="-225" y="-250" as="sourcePoint"/>
                        <mxPoint x="210" y="-160.00463414634132" as="targetPoint"/>
                    </mxGeometry>
                </mxCell>
                <mxCell id="215" value="draw()" style="edgeLabel;html=1;align=center;verticalAlign=middle;resizable=0;points=[];" vertex="1" connectable="0" parent="214">
                    <mxGeometry x="-0.2636" y="-3" relative="1" as="geometry">
                        <mxPoint x="-11" y="-13" as="offset"/>
                    </mxGeometry>
                </mxCell>
                <mxCell id="231" style="edgeStyle=none;html=1;entryX=1;entryY=0.5;entryDx=0;entryDy=0;fontSize=26;" edge="1" parent="1" source="217" target="162">
                    <mxGeometry relative="1" as="geometry"/>
                </mxCell>
                <mxCell id="217" value="GPUResource" style="swimlane;fontStyle=1;align=center;verticalAlign=top;childLayout=stackLayout;horizontal=1;startSize=26;horizontalStack=0;resizeParent=1;resizeParentMax=0;resizeLast=0;collapsible=1;marginBottom=0;fontFamily=Lucida Console;" vertex="1" parent="1">
                    <mxGeometry x="230" y="23" width="360" height="234" as="geometry"/>
                </mxCell>
                <mxCell id="218" value="nodes: umap&lt;str, s_ptr&lt;Node&gt;&gt;" style="text;strokeColor=none;fillColor=none;align=left;verticalAlign=top;spacingLeft=4;spacingRight=4;overflow=hidden;rotatable=0;points=[[0,0.5],[1,0.5]];portConstraint=eastwest;fontFamily=Lucida Console;" vertex="1" parent="217">
                    <mxGeometry y="26" width="360" height="26" as="geometry"/>
                </mxCell>
                <mxCell id="221" value="meshes: umap&lt;str, s_ptr&lt;MeshNode&gt;&gt;" style="text;strokeColor=none;fillColor=none;align=left;verticalAlign=top;spacingLeft=4;spacingRight=4;overflow=hidden;rotatable=0;points=[[0,0.5],[1,0.5]];portConstraint=eastwest;fontFamily=Lucida Console;" vertex="1" parent="217">
                    <mxGeometry y="52" width="360" height="26" as="geometry"/>
                </mxCell>
                <mxCell id="222" value="images: umap&lt;str, s_ptr&lt;AllocatedImage&gt;&gt;" style="text;strokeColor=none;fillColor=none;align=left;verticalAlign=top;spacingLeft=4;spacingRight=4;overflow=hidden;rotatable=0;points=[[0,0.5],[1,0.5]];portConstraint=eastwest;fontFamily=Lucida Console;" vertex="1" parent="217">
                    <mxGeometry y="78" width="360" height="26" as="geometry"/>
                </mxCell>
                <mxCell id="223" value="materials: umap&lt;str, s_ptr&lt;MaterialInstance&gt;&gt;" style="text;strokeColor=none;fillColor=none;align=left;verticalAlign=top;spacingLeft=4;spacingRight=4;overflow=hidden;rotatable=0;points=[[0,0.5],[1,0.5]];portConstraint=eastwest;fontFamily=Lucida Console;" vertex="1" parent="217">
                    <mxGeometry y="104" width="360" height="26" as="geometry"/>
                </mxCell>
                <mxCell id="230" value="samplers: vector&lt;VkSampler&gt;" style="text;strokeColor=none;fillColor=none;align=left;verticalAlign=top;spacingLeft=4;spacingRight=4;overflow=hidden;rotatable=0;points=[[0,0.5],[1,0.5]];portConstraint=eastwest;fontFamily=Lucida Console;" vertex="1" parent="217">
                    <mxGeometry y="130" width="360" height="26" as="geometry"/>
                </mxCell>
                <mxCell id="228" value="material_constants_buffer: AllocatedBuffer&#10;  A huge buffer for all material params." style="text;strokeColor=none;fillColor=none;align=left;verticalAlign=top;spacingLeft=4;spacingRight=4;overflow=hidden;rotatable=0;points=[[0,0.5],[1,0.5]];portConstraint=eastwest;fontFamily=Lucida Console;" vertex="1" parent="217">
                    <mxGeometry y="156" width="360" height="40" as="geometry"/>
                </mxCell>
                <mxCell id="229" value="descriptor_pool: DescriptorAllocator" style="text;strokeColor=none;fillColor=none;align=left;verticalAlign=top;spacingLeft=4;spacingRight=4;overflow=hidden;rotatable=0;points=[[0,0.5],[1,0.5]];portConstraint=eastwest;fontFamily=Lucida Console;" vertex="1" parent="217">
                    <mxGeometry y="196" width="360" height="30" as="geometry"/>
                </mxCell>
                <mxCell id="219" value="" style="line;strokeWidth=1;fillColor=none;align=left;verticalAlign=middle;spacingTop=-1;spacingLeft=3;spacingRight=3;rotatable=0;labelPosition=right;points=[];portConstraint=eastwest;strokeColor=inherit;fontFamily=Lucida Console;" vertex="1" parent="217">
                    <mxGeometry y="226" width="360" height="8" as="geometry"/>
                </mxCell>
                <mxCell id="224" value="GLTF File" style="rounded=1;whiteSpace=wrap;html=1;fontSize=26;fontStyle=1" vertex="1" parent="1">
                    <mxGeometry x="-420" y="-388" width="170" height="130" as="geometry"/>
                </mxCell>
                <mxCell id="225" style="edgeStyle=none;html=1;shape=flexArrow;" edge="1" parent="1" source="224" target="150">
                    <mxGeometry relative="1" as="geometry">
                        <mxPoint x="-460" y="-3.585365853658459" as="sourcePoint"/>
                        <mxPoint x="-600" y="-10.414634146341314" as="targetPoint"/>
                    </mxGeometry>
                </mxCell>
                <mxCell id="226" value="loadGLTF()" style="edgeLabel;html=1;align=center;verticalAlign=middle;resizable=0;points=[];" vertex="1" connectable="0" parent="225">
                    <mxGeometry x="-0.2636" y="-3" relative="1" as="geometry">
                        <mxPoint x="3" y="-9" as="offset"/>
                    </mxGeometry>
                </mxCell>
                <mxCell id="234" value="" style="endArrow=block;dashed=1;endFill=0;html=1;" edge="1" parent="1" source="153" target="130">
                    <mxGeometry width="160" relative="1" as="geometry">
                        <mxPoint x="630" y="-127.16666666666674" as="sourcePoint"/>
                        <mxPoint x="554.230769230769" y="-160" as="targetPoint"/>
                    </mxGeometry>
                </mxCell>
                <mxCell id="240" style="edgeStyle=none;html=1;entryX=1;entryY=0.5;entryDx=0;entryDy=0;fontSize=26;" edge="1" parent="1" source="235" target="195">
                    <mxGeometry relative="1" as="geometry"/>
                </mxCell>
                <mxCell id="235" value="GPUMaterialInstance" style="swimlane;fontStyle=1;align=center;verticalAlign=top;childLayout=stackLayout;horizontal=1;startSize=26;horizontalStack=0;resizeParent=1;resizeParentMax=0;resizeLast=0;collapsible=1;marginBottom=0;fontFamily=Lucida Console;" vertex="1" parent="1">
                    <mxGeometry x="1325" y="198" width="270" height="128" as="geometry"/>
                </mxCell>
                <mxCell id="239" value="pass_type: MaterialPass&#10;  Material type." style="text;strokeColor=none;fillColor=none;align=left;verticalAlign=top;spacingLeft=4;spacingRight=4;overflow=hidden;rotatable=0;points=[[0,0.5],[1,0.5]];portConstraint=eastwest;fontFamily=Lucida Console;" vertex="1" parent="235">
                    <mxGeometry y="26" width="270" height="30" as="geometry"/>
                </mxCell>
                <mxCell id="236" value="p_pipeline: MaterialPipeline*&#10;  Could be shared across surfaces." style="text;strokeColor=none;fillColor=none;align=left;verticalAlign=top;spacingLeft=4;spacingRight=4;overflow=hidden;rotatable=0;points=[[0,0.5],[1,0.5]];portConstraint=eastwest;fontFamily=Lucida Console;" vertex="1" parent="235">
                    <mxGeometry y="56" width="270" height="34" as="geometry"/>
                </mxCell>
                <mxCell id="238" value="descriptor_set: VkDescriptorSet" style="text;strokeColor=none;fillColor=none;align=left;verticalAlign=top;spacingLeft=4;spacingRight=4;overflow=hidden;rotatable=0;points=[[0,0.5],[1,0.5]];portConstraint=eastwest;fontFamily=Lucida Console;" vertex="1" parent="235">
                    <mxGeometry y="90" width="270" height="30" as="geometry"/>
                </mxCell>
                <mxCell id="237" value="" style="line;strokeWidth=1;fillColor=none;align=left;verticalAlign=middle;spacingTop=-1;spacingLeft=3;spacingRight=3;rotatable=0;labelPosition=right;points=[];portConstraint=eastwest;strokeColor=inherit;fontFamily=Lucida Console;" vertex="1" parent="235">
                    <mxGeometry y="120" width="270" height="8" as="geometry"/>
                </mxCell>
                <mxCell id="245" style="edgeStyle=none;html=1;entryX=1;entryY=0.5;entryDx=0;entryDy=0;fontSize=26;" edge="1" parent="1" source="241" target="236">
                    <mxGeometry relative="1" as="geometry"/>
                </mxCell>
                <mxCell id="241" value="MaterialPipeline" style="swimlane;fontStyle=1;align=center;verticalAlign=top;childLayout=stackLayout;horizontal=1;startSize=26;horizontalStack=0;resizeParent=1;resizeParentMax=0;resizeLast=0;collapsible=1;marginBottom=0;fontFamily=Lucida Console;" vertex="1" parent="1">
                    <mxGeometry x="1700" y="280" width="220" height="86" as="geometry"/>
                </mxCell>
                <mxCell id="242" value="pipeline: VkPipeline" style="text;strokeColor=none;fillColor=none;align=left;verticalAlign=top;spacingLeft=4;spacingRight=4;overflow=hidden;rotatable=0;points=[[0,0.5],[1,0.5]];portConstraint=eastwest;fontFamily=Lucida Console;" vertex="1" parent="241">
                    <mxGeometry y="26" width="220" height="26" as="geometry"/>
                </mxCell>
                <mxCell id="243" value="layout: VkPipelineLayout" style="text;strokeColor=none;fillColor=none;align=left;verticalAlign=top;spacingLeft=4;spacingRight=4;overflow=hidden;rotatable=0;points=[[0,0.5],[1,0.5]];portConstraint=eastwest;fontFamily=Lucida Console;" vertex="1" parent="241">
                    <mxGeometry y="52" width="220" height="26" as="geometry"/>
                </mxCell>
                <mxCell id="244" value="" style="line;strokeWidth=1;fillColor=none;align=left;verticalAlign=middle;spacingTop=-1;spacingLeft=3;spacingRight=3;rotatable=0;labelPosition=right;points=[];portConstraint=eastwest;strokeColor=inherit;fontFamily=Lucida Console;" vertex="1" parent="241">
                    <mxGeometry y="78" width="220" height="8" as="geometry"/>
                </mxCell>
            </root>
        </mxGraphModel>
    </diagram>
</mxfile>